<svg width="52" height="47" viewBox="0 0 52 47" fill="none" xmlns="http://www.w3.org/2000/svg">
<path d="M45.5 2.9375C46.362 2.9375 47.1886 3.24699 47.7981 3.79787C48.4076 4.34876 48.75 5.09593 48.75 5.875V41.125C48.75 41.9041 48.4076 42.6512 47.7981 43.2021C47.1886 43.753 46.362 44.0625 45.5 44.0625H6.5C5.63805 44.0625 4.8114 43.753 4.2019 43.2021C3.59241 42.6512 3.25 41.9041 3.25 41.125V5.875C3.25 5.09593 3.59241 4.34876 4.2019 3.79787C4.8114 3.24699 5.63805 2.9375 6.5 2.9375H45.5ZM6.5 0C4.77609 0 3.12279 0.618972 1.90381 1.72075C0.68482 2.82252 0 4.31685 0 5.875L0 41.125C0 42.6831 0.68482 44.1775 1.90381 45.2793C3.12279 46.381 4.77609 47 6.5 47H45.5C47.2239 47 48.8772 46.381 50.0962 45.2793C51.3152 44.1775 52 42.6831 52 41.125V5.875C52 4.31685 51.3152 2.82252 50.0962 1.72075C48.8772 0.618972 47.2239 0 45.5 0L6.5 0Z" fill="#93A605"/>
<path d="M26 11.75C26.431 11.75 26.8443 11.9047 27.149 12.1802C27.4538 12.4556 27.625 12.8292 27.625 13.2188V22.0312H37.375C37.806 22.0312 38.2193 22.186 38.524 22.4614C38.8288 22.7369 39 23.1105 39 23.5C39 23.8895 38.8288 24.2631 38.524 24.5386C38.2193 24.814 37.806 24.9688 37.375 24.9688H27.625V33.7812C27.625 34.1708 27.4538 34.5444 27.149 34.8198C26.8443 35.0953 26.431 35.25 26 35.25C25.569 35.25 25.1557 35.0953 24.851 34.8198C24.5462 34.5444 24.375 34.1708 24.375 33.7812V24.9688H14.625C14.194 24.9688 13.7807 24.814 13.476 24.5386C13.1712 24.2631 13 23.8895 13 23.5C13 23.1105 13.1712 22.7369 13.476 22.4614C13.7807 22.186 14.194 22.0312 14.625 22.0312H24.375V13.2188C24.375 12.8292 24.5462 12.4556 24.851 12.1802C25.1557 11.9047 25.569 11.75 26 11.75Z" fill="#93A605"/>
</svg>
